<?xml version="1.0" encoding="UTF-8"?>
<!DOCTYPE svg PUBLIC "-//W3C//DTD SVG 1.1//EN" "http://www.w3.org/Graphics/SVG/1.1/DTD/svg11.dtd">
<svg xmlns="http://www.w3.org/2000/svg" version="1.1" width="758px" height="802px" style="shape-rendering:geometricPrecision; text-rendering:geometricPrecision; image-rendering:optimizeQuality; fill-rule:evenodd; clip-rule:evenodd" xmlns:xlink="http://www.w3.org/1999/xlink">
<g><path style="opacity:0.142" fill="#030304" d="M 25.5,-0.5 C 27.5,-0.5 29.5,-0.5 31.5,-0.5C 32.5676,0.434475 33.901,0.767809 35.5,0.5C 24.8207,4.47181 18.3207,12.1385 16,23.5C 15.3333,274.5 15.3333,525.5 16,776.5C 18.5094,788.835 25.6761,796.835 37.5,800.5C 36.209,800.263 35.209,800.596 34.5,801.5C 30.1667,801.5 25.8333,801.5 21.5,801.5C 9.20067,797.534 1.86734,789.201 -0.5,776.5C -0.5,526.167 -0.5,275.833 -0.5,25.5C 2.5,11.1667 11.1667,2.5 25.5,-0.5 Z"/></g>
<g><path style="opacity:0.992" fill="#f1f1f0" d="M 39.5,-0.5 C 42.1667,-0.5 44.8333,-0.5 47.5,-0.5C 59.1715,1.99499 67.0048,8.99499 71,20.5C 81.2047,77.8567 91.538,135.19 102,192.5C 112.577,194.463 123.41,195.13 134.5,194.5C 134.833,194.5 135.167,194.5 135.5,194.5C 140.64,195.488 145.974,195.821 151.5,195.5C 151.5,138.167 151.5,80.8333 151.5,23.5C 153.37,12.0661 159.704,4.39948 170.5,0.5C 172.099,0.767809 173.432,0.434475 174.5,-0.5C 177.167,-0.5 179.833,-0.5 182.5,-0.5C 194.172,1.99499 202.005,8.99499 206,20.5C 206.5,78.499 206.667,136.499 206.5,194.5C 381.834,194.333 557.167,194.5 732.5,195C 750.869,199.22 758.703,210.72 756,229.5C 755.197,232.244 754.197,234.911 753,237.5C 723.861,267.639 694.361,297.472 664.5,327C 721.575,377.999 752.575,441.833 757.5,518.5C 757.5,526.5 757.5,534.5 757.5,542.5C 751.075,632.539 711.075,703.373 637.5,755C 560.73,803.072 479.397,812.406 393.5,783C 372.611,774.891 352.944,764.724 334.5,752.5C 316.314,738.821 299.481,723.488 284,706.5C 282.198,707.789 281.031,709.456 280.5,711.5C 252.368,739.132 224.368,766.965 196.5,795C 188.488,800.31 179.821,801.81 170.5,799.5C 159.537,795.698 153.037,788.031 151,776.5C 124.775,630.815 98.4414,485.149 72,339.5C 71.5,369.165 71.3334,398.831 71.5,428.5C 71.6667,545.5 71.5,662.5 71,779.5C 65.7088,795.589 54.5422,802.589 37.5,800.5C 25.6761,796.835 18.5094,788.835 16,776.5C 15.3333,525.5 15.3333,274.5 16,23.5C 18.3207,12.1385 24.8207,4.47181 35.5,0.5C 37.099,0.767809 38.4324,0.434475 39.5,-0.5 Z M 112.5,251.5 C 119.833,251.5 127.167,251.5 134.5,251.5C 134.5,290.5 134.5,329.5 134.5,368.5C 126.929,329.638 119.595,290.638 112.5,251.5 Z M 206.5,251.5 C 352.5,251.333 498.5,251.5 644.5,252C 632.298,264.369 619.965,276.535 607.5,288.5C 559.632,265.91 509.298,257.244 456.5,262.5C 374.339,267.16 307.839,301.493 257,365.5C 231.145,400.213 214.312,438.88 206.5,481.5C 206.5,404.833 206.5,328.167 206.5,251.5 Z M 485.5,318.5 C 509.822,321.269 533.155,327.935 555.5,338.5C 556.521,339.002 556.688,339.668 556,340.5C 467.299,429.035 378.799,517.701 290.5,606.5C 264.925,536.099 273.092,469.766 315,407.5C 357.306,350.592 414.139,320.926 485.5,318.5 Z M 612.5,379.5 C 655.952,423.321 676.119,476.321 673,538.5C 665.987,612.417 630.821,668.25 567.5,706C 510.339,736.18 451.339,740.347 390.5,718.5C 365.711,705.901 344.211,688.901 326,667.5C 325.333,666.833 325.333,666.167 326,665.5C 421.368,569.965 516.868,474.632 612.5,379.5 Z M 206.5,568.5 C 212.172,599.703 222.839,629.203 238.5,657C 228.34,668.327 217.673,679.16 206.5,689.5C 206.5,649.167 206.5,608.833 206.5,568.5 Z"/></g>
<g><path style="opacity:0.142" fill="#030304" d="M 160.5,-0.5 C 162.5,-0.5 164.5,-0.5 166.5,-0.5C 167.568,0.434475 168.901,0.767809 170.5,0.5C 159.704,4.39948 153.37,12.0661 151.5,23.5C 150.501,80.3309 150.168,137.331 150.5,194.5C 145.5,194.5 140.5,194.5 135.5,194.5C 135.167,194.5 134.833,194.5 134.5,194.5C 134.333,138.166 134.5,81.8323 135,25.5C 137.68,10.9878 146.18,2.32111 160.5,-0.5 Z"/></g>
<g><path style="opacity:0.361" fill="#929095" d="M 151.5,23.5 C 151.5,80.8333 151.5,138.167 151.5,195.5C 145.974,195.821 140.64,195.488 135.5,194.5C 140.5,194.5 145.5,194.5 150.5,194.5C 150.168,137.331 150.501,80.3309 151.5,23.5 Z"/></g>
<g><path style="opacity:0.986" fill="#f0f0ef" d="M 645.5,62.5 C 647.376,65.9209 648.376,69.5876 648.5,73.5C 648.5,76.8333 648.5,80.1667 648.5,83.5C 647.787,86.5939 646.787,89.5939 645.5,92.5C 644.5,92.8333 643.833,93.5 643.5,94.5C 639.537,97.8204 635.204,100.654 630.5,103C 620.042,106.875 609.375,110.042 598.5,112.5C 599.855,114.521 601.521,116.188 603.5,117.5C 615.017,130.249 628.351,140.582 643.5,148.5C 646.19,151.185 649.19,153.518 652.5,155.5C 654.704,159.286 655.038,163.286 653.5,167.5C 652.167,168.167 651.167,169.167 650.5,170.5C 644.857,173.906 638.857,174.406 632.5,172C 618.917,164.755 606.75,155.589 596,144.5C 596.409,148.208 596.242,151.875 595.5,155.5C 595.002,158.326 593.669,160.66 591.5,162.5C 585.176,167.202 580.01,166.202 576,159.5C 565.339,129.557 561.005,98.8907 563,67.5C 562.333,68.1667 561.667,68.8333 561,69.5C 560.501,73.8206 560.334,78.1539 560.5,82.5C 559.5,82.5 558.5,82.5 557.5,82.5C 557.167,82.5 556.833,82.5 556.5,82.5C 545.074,82.0786 538.741,76.0786 537.5,64.5C 538.046,62.8653 538.38,61.1986 538.5,59.5C 541.592,51.9064 546.926,46.4064 554.5,43C 579.684,35.8615 604.35,37.1949 628.5,47C 635.639,50.6423 641.305,55.8089 645.5,62.5 Z M 584.5,71.5 C 595.671,71.2087 606.004,73.8754 615.5,79.5C 606.275,83.222 596.609,85.5553 586.5,86.5C 585.898,81.4817 585.232,76.4817 584.5,71.5 Z"/></g>
<g><path style="opacity:0.984" fill="#f0f0ef" d="M 737.5,67.5 C 732.976,68.97 728.643,68.47 724.5,66C 716.507,65.5003 708.507,65.3336 700.5,65.5C 691.833,65.5 683.167,65.5 674.5,65.5C 674.194,68.3854 674.527,71.0521 675.5,73.5C 675.5,77.8333 675.5,82.1667 675.5,86.5C 689.572,84.877 703.572,82.7103 717.5,80C 724.492,79.5004 731.492,79.3337 738.5,79.5C 738.666,83.5138 738.499,87.5138 738,91.5C 737.062,94.2565 735.562,96.5899 733.5,98.5C 728.11,102.359 722.11,104.859 715.5,106C 702.555,107.95 689.555,109.45 676.5,110.5C 673.013,111.427 671.68,113.76 672.5,117.5C 672.5,124.833 672.5,132.167 672.5,139.5C 692.826,137.933 713.16,136.767 733.5,136C 745.996,139.985 748.329,147.152 740.5,157.5C 734.95,160.74 728.95,162.907 722.5,164C 703.134,167.169 683.8,167.169 664.5,164C 659.944,161.894 655.944,159.061 652.5,155.5C 648.797,148.356 646.797,140.69 646.5,132.5C 648.456,120.871 648.79,109.205 647.5,97.5C 647.319,94.8368 647.985,92.5034 649.5,90.5C 650.833,77.1667 650.833,63.8333 649.5,50.5C 651.828,42.4075 657.328,38.7408 666,39.5C 685.851,41.0847 705.685,41.418 725.5,40.5C 732.338,42.5225 737.504,46.5225 741,52.5C 743.415,58.4072 742.248,63.4072 737.5,67.5 Z"/></g>
<g><path style="opacity:0.983" fill="#f0f0ef" d="M 542.5,148.5 C 533.094,156.867 522.094,162.034 509.5,164C 484.851,170.382 463.685,164.549 446,146.5C 435.051,131.036 431.551,114.036 435.5,95.5C 436.537,94.0697 437.204,92.403 437.5,90.5C 438.5,87.8333 439.5,85.1667 440.5,82.5C 443.002,80.8304 445.002,78.6637 446.5,76C 433.667,72.5332 420.667,70.0332 407.5,68.5C 407.5,70.8333 407.5,73.1667 407.5,75.5C 409.539,95.6036 412.372,115.604 416,135.5C 417.139,139.112 418.806,142.446 421,145.5C 424.996,152.643 424.163,158.977 418.5,164.5C 405.951,169.469 397.118,165.803 392,153.5C 387.087,125.709 383.754,97.7089 382,69.5C 366.102,68.0863 350.269,65.9196 334.5,63C 329.104,59.7057 326.77,54.8724 327.5,48.5C 327.5,46.1667 327.5,43.8333 327.5,41.5C 364.658,40.3768 401.658,42.2101 438.5,47C 444.824,48.0797 450.824,50.0797 456.5,53C 460.598,56.5141 462.598,61.0141 462.5,66.5C 472.13,63.0912 481.797,63.2579 491.5,67C 515.047,72.5618 532.88,85.7285 545,106.5C 549.856,116.428 551.189,126.761 549,137.5C 547.311,141.56 545.144,145.227 542.5,148.5 Z M 520.5,133.5 C 498.711,146.716 479.544,143.716 463,124.5C 457.863,117.001 456.697,109.001 459.5,100.5C 464.764,97.6384 470.43,96.8051 476.5,98C 491.357,101.175 503.857,108.341 514,119.5C 516.99,123.812 519.157,128.479 520.5,133.5 Z"/></g>
<g><path style="opacity:0.978" fill="#f0f0ef" d="M 323.5,57.5 C 325.683,60.8637 327.016,64.5304 327.5,68.5C 328.507,72.7795 327.174,75.7795 323.5,77.5C 320.36,79.1898 317.026,79.6898 313.5,79C 305.929,75.8813 298.596,72.2147 291.5,68C 283.445,67.1784 275.445,67.5117 267.5,69C 265.919,69.7065 264.419,70.5399 263,71.5C 262.235,73.0657 262.402,74.3991 263.5,75.5C 266.204,79.0267 269.538,81.8601 273.5,84C 287.956,90.7279 302.289,97.7279 316.5,105C 324.333,110.167 330.833,116.667 336,124.5C 339.684,135.057 338.184,144.724 331.5,153.5C 323.17,161.495 313.17,165.995 301.5,167C 274.803,170.328 250.803,163.994 229.5,148C 221.854,141.209 218.187,132.709 218.5,122.5C 222.513,110.515 230.846,105.515 243.5,107.5C 240.064,125.829 247.398,136.662 265.5,140C 272.395,140.753 279.229,141.587 286,142.5C 293.009,142.018 299.842,141.018 306.5,139.5C 307.822,139.67 308.989,139.337 310,138.5C 310.769,135.901 310.602,133.401 309.5,131C 288.261,119.799 267.427,107.966 247,95.5C 239.824,87.136 236.991,77.4693 238.5,66.5C 241.529,57.9688 247.195,51.8022 255.5,48C 275.88,41.2774 295.88,42.2774 315.5,51C 318.331,53.0007 320.997,55.1673 323.5,57.5 Z"/></g>
<g><path style="opacity:0.138" fill="#040405" d="M 327.5,48.5 C 326.77,54.8724 329.104,59.7057 334.5,63C 350.269,65.9196 366.102,68.0863 382,69.5C 383.754,97.7089 387.087,125.709 392,153.5C 397.118,165.803 405.951,169.469 418.5,164.5C 416.421,170.809 411.921,173.809 405,173.5C 397.531,173.439 392.198,170.106 389,163.5C 386.056,152.019 384.056,140.352 383,128.5C 381.003,110.871 379.503,93.204 378.5,75.5C 361.164,75.1183 344.164,72.785 327.5,68.5C 327.016,64.5304 325.683,60.8637 323.5,57.5C 323.5,54.5 323.5,51.5 323.5,48.5C 324.833,48.5 326.167,48.5 327.5,48.5 Z"/></g>
<g><path style="opacity:0.128" fill="#070708" d="M 649.5,50.5 C 649.825,58.3516 649.492,66.0182 648.5,73.5C 648.376,69.5876 647.376,65.9209 645.5,62.5C 645.069,57.793 646.402,53.793 649.5,50.5 Z"/></g>
<g><path style="opacity:0.576" fill="#c1bfc2" d="M 649.5,50.5 C 650.833,63.8333 650.833,77.1667 649.5,90.5C 649.802,87.9407 649.468,85.6074 648.5,83.5C 648.5,80.1667 648.5,76.8333 648.5,73.5C 649.492,66.0182 649.825,58.3516 649.5,50.5 Z"/></g>
<g><path style="opacity:0.137" fill="#040405" d="M 538.5,59.5 C 538.38,61.1986 538.046,62.8653 537.5,64.5C 538.741,76.0786 545.074,82.0786 556.5,82.5C 556.5,84.5 556.5,86.5 556.5,88.5C 542.883,90.8828 535.216,85.2161 533.5,71.5C 534.024,66.9044 535.69,62.9044 538.5,59.5 Z"/></g>
<g><path style="opacity:0.142" fill="#060607" d="M 615.5,79.5 C 606.004,73.8754 595.671,71.2087 584.5,71.5C 583.314,68.6603 581.314,66.4936 578.5,65C 591.246,63.8402 603.579,65.5069 615.5,70C 618.02,71.7632 620.353,73.7632 622.5,76C 620.691,78.2379 618.358,79.4046 615.5,79.5 Z"/></g>
<g><path style="opacity:0.576" fill="#c1bfc2" d="M 700.5,65.5 C 692.35,66.4927 684.017,66.8261 675.5,66.5C 675.5,68.8333 675.5,71.1667 675.5,73.5C 674.527,71.0521 674.194,68.3854 674.5,65.5C 683.167,65.5 691.833,65.5 700.5,65.5 Z"/></g>
<g><path style="opacity:0.139" fill="#040405" d="M 700.5,65.5 C 708.507,65.3336 716.507,65.5003 724.5,66C 728.643,68.47 732.976,68.97 737.5,67.5C 736.778,72.3885 733.944,75.0551 729,75.5C 725.988,75.2739 723.155,74.4406 720.5,73C 705.495,72.5715 690.495,72.7382 675.5,73.5C 675.5,71.1667 675.5,68.8333 675.5,66.5C 684.017,66.8261 692.35,66.4927 700.5,65.5 Z"/></g>
<g><path style="opacity:0.139" fill="#050506" d="M 238.5,66.5 C 236.991,77.4693 239.824,87.136 247,95.5C 267.427,107.966 288.261,119.799 309.5,131C 310.602,133.401 310.769,135.901 310,138.5C 308.989,139.337 307.822,139.67 306.5,139.5C 289.218,129.187 271.551,119.354 253.5,110C 238.424,102.014 232.257,89.5136 235,72.5C 235.424,69.9746 236.59,67.9746 238.5,66.5 Z"/></g>
<g><path style="opacity:0.138" fill="#040405" d="M 323.5,77.5 C 323.739,79.4672 323.406,81.3005 322.5,83C 317.125,86.4312 311.458,87.0979 305.5,85C 298.626,81.0634 291.626,77.3967 284.5,74C 277.505,74.1657 270.505,74.6657 263.5,75.5C 262.402,74.3991 262.235,73.0657 263,71.5C 264.419,70.5399 265.919,69.7065 267.5,69C 275.445,67.5117 283.445,67.1784 291.5,68C 298.596,72.2147 305.929,75.8813 313.5,79C 317.026,79.6898 320.36,79.1898 323.5,77.5 Z"/></g>
<g><path style="opacity:0.142" fill="#030304" d="M 440.5,82.5 C 429.63,79.7002 418.63,77.3668 407.5,75.5C 407.5,73.1667 407.5,70.8333 407.5,68.5C 420.667,70.0332 433.667,72.5332 446.5,76C 445.002,78.6637 443.002,80.8304 440.5,82.5 Z"/></g>
<g><path style="opacity:0.135" fill="#050506" d="M 591.5,162.5 C 590.231,168.325 586.564,171.659 580.5,172.5C 576.417,172.248 573.584,170.248 572,166.5C 562.953,139.22 558.12,111.22 557.5,82.5C 558.5,82.5 559.5,82.5 560.5,82.5C 560.334,78.1539 560.501,73.8206 561,69.5C 561.667,68.8333 562.333,68.1667 563,67.5C 561.005,98.8907 565.339,129.557 576,159.5C 580.01,166.202 585.176,167.202 591.5,162.5 Z"/></g>
<g><path style="opacity:0.136" fill="#070608" d="M 648.5,83.5 C 649.468,85.6074 649.802,87.9407 649.5,90.5C 647.985,92.5034 647.319,94.8368 647.5,97.5C 648.79,109.205 648.456,120.871 646.5,132.5C 646.797,140.69 648.797,148.356 652.5,155.5C 649.19,153.518 646.19,151.185 643.5,148.5C 644.11,133.818 644.11,119.151 643.5,104.5C 644.655,100.635 645.321,96.6353 645.5,92.5C 646.787,89.5939 647.787,86.5939 648.5,83.5 Z"/></g>
<g><path style="opacity:0.138" fill="#050506" d="M 520.5,133.5 C 519.157,128.479 516.99,123.812 514,119.5C 503.857,108.341 491.357,101.175 476.5,98C 470.43,96.8051 464.764,97.6384 459.5,100.5C 461.958,93.433 466.958,90.0997 474.5,90.5C 493.55,91.9385 508.717,100.272 520,115.5C 523.062,120.085 524.396,125.085 524,130.5C 522.961,131.71 521.794,132.71 520.5,133.5 Z"/></g>
<g><path style="opacity:0.136" fill="#040405" d="M 435.5,93.5 C 435.5,94.1667 435.5,94.8333 435.5,95.5C 431.551,114.036 435.051,131.036 446,146.5C 463.685,164.549 484.851,170.382 509.5,164C 522.094,162.034 533.094,156.867 542.5,148.5C 539.069,155.099 534.069,160.265 527.5,164C 507.767,172.87 487.433,174.87 466.5,170C 446.772,162.937 434.939,149.104 431,128.5C 430.333,120.5 430.333,112.5 431,104.5C 431.994,100.526 433.494,96.8597 435.5,93.5 Z"/></g>
<g><path style="opacity:0.522" fill="#737275" d="M 437.5,90.5 C 437.204,92.403 436.537,94.0697 435.5,95.5C 435.5,94.8333 435.5,94.1667 435.5,93.5C 435.427,91.9731 436.094,90.9731 437.5,90.5 Z"/></g>
<g><path style="opacity:0.131" fill="#060607" d="M 643.5,94.5 C 639.552,102.607 633.218,108.107 624.5,111C 617.423,113.345 610.423,115.512 603.5,117.5C 601.521,116.188 599.855,114.521 598.5,112.5C 609.375,110.042 620.042,106.875 630.5,103C 635.204,100.654 639.537,97.8204 643.5,94.5 Z"/></g>
<g><path style="opacity:0.136" fill="#050506" d="M 733.5,98.5 C 732.874,101.315 731.54,103.815 729.5,106C 722.158,110.505 714.158,113.172 705.5,114C 694.477,115.199 683.477,116.365 672.5,117.5C 671.68,113.76 673.013,111.427 676.5,110.5C 689.555,109.45 702.555,107.95 715.5,106C 722.11,104.859 728.11,102.359 733.5,98.5 Z"/></g>
<g><path style="opacity:0.138" fill="#040405" d="M 218.5,122.5 C 218.187,132.709 221.854,141.209 229.5,148C 250.803,163.994 274.803,170.328 301.5,167C 313.17,165.995 323.17,161.495 331.5,153.5C 326.394,163.241 318.394,169.408 307.5,172C 282.779,177.23 259.112,174.23 236.5,163C 226.129,157.63 218.962,149.463 215,138.5C 213.622,132.489 214.789,127.155 218.5,122.5 Z"/></g>
<g><path style="opacity:0.138" fill="#040405" d="M 650.5,170.5 C 647.221,179.473 640.887,182.64 631.5,180C 625.39,177.779 619.723,174.779 614.5,171C 608.136,165.825 601.803,160.658 595.5,155.5C 596.242,151.875 596.409,148.208 596,144.5C 606.75,155.589 618.917,164.755 632.5,172C 638.857,174.406 644.857,173.906 650.5,170.5 Z"/></g>
<g><path style="opacity:0.137" fill="#030304" d="M 652.5,155.5 C 655.944,159.061 659.944,161.894 664.5,164C 683.8,167.169 703.134,167.169 722.5,164C 728.95,162.907 734.95,160.74 740.5,157.5C 737.124,164.545 731.457,168.712 723.5,170C 705.959,173.111 688.292,174.111 670.5,173C 664.449,172.261 658.782,170.427 653.5,167.5C 655.038,163.286 654.704,159.286 652.5,155.5 Z"/></g>
<g><path style="opacity:0.788" fill="#e3e2e3" d="M 206.5,250.5 C 358.334,249.167 510.334,249.167 662.5,250.5C 662.376,251.107 662.043,251.44 661.5,251.5C 510.001,250.5 358.334,250.167 206.5,250.5 Z"/></g>
<g><path style="opacity:0.143" fill="#030304" d="M 112.5,251.5 C 124.989,250.505 137.656,250.171 150.5,250.5C 150.833,319.669 150.499,388.669 149.5,457.5C 144.392,427.852 139.392,398.186 134.5,368.5C 134.5,329.5 134.5,290.5 134.5,251.5C 127.167,251.5 119.833,251.5 112.5,251.5 Z"/></g>
<g><path style="opacity:0.361" fill="#908f93" d="M 150.5,250.5 C 151.665,320.999 151.832,391.665 151,462.5C 150.648,460.753 150.148,459.086 149.5,457.5C 150.499,388.669 150.833,319.669 150.5,250.5 Z"/></g>
<g><path style="opacity:0.1" fill="#060607" d="M 206.5,251.5 C 206.5,251.167 206.5,250.833 206.5,250.5C 358.334,250.167 510.001,250.5 661.5,251.5C 647.035,265.465 632.701,279.631 618.5,294C 614.33,293.248 610.663,291.415 607.5,288.5C 619.965,276.535 632.298,264.369 644.5,252C 498.5,251.5 352.5,251.333 206.5,251.5 Z"/></g>
<g><path style="opacity:0.143" fill="#040405" d="M 456.5,262.5 C 369.202,275.209 302.369,318.876 256,393.5C 207.743,481.508 206.243,570.341 251.5,660C 237.042,675.459 222.208,690.626 207,705.5C 206.501,700.177 206.334,694.844 206.5,689.5C 217.673,679.16 228.34,668.327 238.5,657C 222.839,629.203 212.172,599.703 206.5,568.5C 206.5,539.5 206.5,510.5 206.5,481.5C 214.312,438.88 231.145,400.213 257,365.5C 307.839,301.493 374.339,267.16 456.5,262.5 Z"/></g>
<g><path style="opacity:0.142" fill="#070709" d="M 485.5,318.5 C 516.864,318.073 546.864,324.239 575.5,337C 482,430.5 388.5,524 295,617.5C 292.425,614.274 290.925,610.607 290.5,606.5C 378.799,517.701 467.299,429.035 556,340.5C 556.688,339.668 556.521,339.002 555.5,338.5C 533.155,327.935 509.822,321.269 485.5,318.5 Z"/></g>
<g><path style="opacity:0.145" fill="#030305" d="M 170.5,799.5 C 168.5,800.167 166.5,800.833 164.5,801.5C 163.833,801.5 163.167,801.5 162.5,801.5C 149.167,800.348 140.334,793.348 136,780.5C 114.793,662.974 93.2926,545.641 71.5,428.5C 71.3334,398.831 71.5,369.165 72,339.5C 98.4414,485.149 124.775,630.815 151,776.5C 153.037,788.031 159.537,795.698 170.5,799.5 Z"/></g>
<g><path style="opacity:0.146" fill="#030304" d="M 390.5,718.5 C 451.339,740.347 510.339,736.18 567.5,706C 630.821,668.25 665.987,612.417 673,538.5C 676.119,476.321 655.952,423.321 612.5,379.5C 615.414,374.915 619.08,370.915 623.5,367.5C 673.577,409.999 699.244,464.333 700.5,530.5C 696.457,620.645 654.124,685.479 573.5,725C 519.238,747.188 464.572,748.188 409.5,728C 402.827,725.33 396.494,722.163 390.5,718.5 Z"/></g>
<g><path style="opacity:0.127" fill="#08080a" d="M 334.5,752.5 C 314.734,741.27 296.734,727.603 280.5,711.5C 281.031,709.456 282.198,707.789 284,706.5C 299.481,723.488 316.314,738.821 334.5,752.5 Z"/></g>
</svg>
