<?xml version="1.0" encoding="UTF-8"?>
<!DOCTYPE svg PUBLIC "-//W3C//DTD SVG 1.1//EN" "http://www.w3.org/Graphics/SVG/1.1/DTD/svg11.dtd">
<svg xmlns="http://www.w3.org/2000/svg" version="1.1" width="758px" height="802px" style="shape-rendering:geometricPrecision; text-rendering:geometricPrecision; image-rendering:optimizeQuality; fill-rule:evenodd; clip-rule:evenodd" xmlns:xlink="http://www.w3.org/1999/xlink">
<g><path style="opacity:0.852" fill="#020303" d="M 25.5,-0.5 C 27.5,-0.5 29.5,-0.5 31.5,-0.5C 34.1667,0.833333 36.8333,0.833333 39.5,-0.5C 42.1667,-0.5 44.8333,-0.5 47.5,-0.5C 59.1715,1.99499 67.0048,8.99499 71,20.5C 81.2047,77.8567 91.538,135.19 102,192.5C 112.577,194.463 123.41,195.13 134.5,194.5C 134.333,138.166 134.5,81.8323 135,25.5C 137.68,10.9878 146.18,2.32111 160.5,-0.5C 162.5,-0.5 164.5,-0.5 166.5,-0.5C 169.167,0.833333 171.833,0.833333 174.5,-0.5C 177.167,-0.5 179.833,-0.5 182.5,-0.5C 194.172,1.99499 202.005,8.99499 206,20.5C 206.5,78.499 206.667,136.499 206.5,194.5C 381.834,194.333 557.167,194.5 732.5,195C 750.869,199.22 758.703,210.72 756,229.5C 755.197,232.244 754.197,234.911 753,237.5C 723.861,267.639 694.361,297.472 664.5,327C 721.575,377.999 752.575,441.833 757.5,518.5C 757.5,526.5 757.5,534.5 757.5,542.5C 751.075,632.539 711.075,703.373 637.5,755C 560.73,803.072 479.397,812.406 393.5,783C 351.202,766.201 313.535,742.368 280.5,711.5C 252.347,739.153 224.347,766.986 196.5,795C 188.658,800.285 180.158,801.785 171,799.5C 168.723,800.117 166.556,800.784 164.5,801.5C 163.833,801.5 163.167,801.5 162.5,801.5C 149.167,800.348 140.334,793.348 136,780.5C 114.667,663.167 93.3333,545.833 72,428.5C 71.6667,545.5 71.3333,662.5 71,779.5C 68.1667,790.333 61.3333,797.167 50.5,800C 44.9842,800.173 39.6509,800.673 34.5,801.5C 30.1667,801.5 25.8333,801.5 21.5,801.5C 9.20067,797.534 1.86734,789.201 -0.5,776.5C -0.5,526.167 -0.5,275.833 -0.5,25.5C 2.5,11.1667 11.1667,2.5 25.5,-0.5 Z M 112.5,252.5 C 119.648,251.508 126.981,251.175 134.5,251.5C 134.667,290.501 134.5,329.501 134,368.5C 126.998,329.664 119.831,290.998 112.5,252.5 Z M 206.5,251.5 C 352.5,251.333 498.5,251.5 644.5,252C 632.292,264.542 619.792,276.709 607,288.5C 552.704,263.357 495.87,255.19 436.5,264C 347.001,276.463 279.834,321.63 235,399.5C 221.282,425.32 211.949,452.654 207,481.5C 206.5,404.834 206.333,328.167 206.5,251.5 Z M 470.5,318.5 C 500.341,318.801 528.674,325.468 555.5,338.5C 556.521,339.002 556.688,339.668 556,340.5C 467.333,429.167 378.667,517.833 290,606.5C 263.193,529.341 274.86,458.674 325,394.5C 363.41,350.043 411.91,324.71 470.5,318.5 Z M 611.5,379.5 C 615.402,381.893 618.902,384.893 622,388.5C 671.376,448.379 685.043,515.712 663,590.5C 634.097,668.063 578.93,714.563 497.5,730C 458.884,735.506 421.55,730.84 385.5,716C 362.743,703.523 342.91,687.356 326,667.5C 325.333,666.833 325.333,666.167 326,665.5C 421.368,570.299 516.535,474.965 611.5,379.5 Z M 206.5,568.5 C 212.172,599.703 222.839,629.203 238.5,657C 228.376,668.125 217.876,678.959 207,689.5C 206.5,649.168 206.333,608.835 206.5,568.5 Z"/></g>
<g><path style="opacity:0.828" fill="#020303" d="M 583.5,38.5 C 603.212,37.426 621.212,42.2593 637.5,53C 640.762,55.592 643.262,58.7587 645,62.5C 645.346,59.4245 646.012,56.4245 647,53.5C 649.413,50.9382 651.08,47.9382 652,44.5C 656.005,41.221 660.671,39.5543 666,39.5C 685.851,41.0847 705.685,41.418 725.5,40.5C 744.582,48.7414 746.915,60.2414 732.5,75C 724.038,73.1201 715.372,72.2868 706.5,72.5C 696.168,72.9509 685.835,73.2843 675.5,73.5C 675.5,77.8333 675.5,82.1667 675.5,86.5C 689.572,84.877 703.572,82.7103 717.5,80C 724.492,79.5004 731.492,79.3337 738.5,79.5C 739.277,98.5552 730.277,109.722 711.5,113C 698.843,114.771 686.176,116.271 673.5,117.5C 672.503,124.803 672.169,132.137 672.5,139.5C 690.196,138.63 707.863,137.297 725.5,135.5C 732.395,134.91 738.395,136.91 743.5,141.5C 745.893,145.869 745.726,150.202 743,154.5C 740.623,158.088 738.123,161.588 735.5,165C 724.152,170.433 712.152,173.1 699.5,173C 689.833,173.667 680.167,173.667 670.5,173C 664.477,172.27 658.811,170.437 653.5,167.5C 651.125,171.712 648.125,175.545 644.5,179C 640.289,180.534 635.956,180.867 631.5,180C 625.39,177.779 619.723,174.779 614.5,171C 608.241,165.952 602.074,160.786 596,155.5C 593.533,159.98 591.033,164.48 588.5,169C 581.97,174.152 576.47,173.319 572,166.5C 563.116,139.199 558.116,111.199 557,82.5C 556.505,84.4727 556.338,86.4727 556.5,88.5C 542.883,90.8828 535.216,85.2161 533.5,71.5C 535.931,56.5757 544.264,46.7423 558.5,42C 566.931,40.4505 575.264,39.2839 583.5,38.5 Z M 584.5,71.5 C 595.774,71.0674 606.107,73.9008 615.5,80C 606.066,83.2754 596.4,85.4421 586.5,86.5C 585.898,81.4817 585.232,76.4817 584.5,71.5 Z M 644.5,92.5 C 645.147,93.2739 645.48,94.2739 645.5,95.5C 644.115,98.2732 643.448,101.273 643.5,104.5C 644.442,119.18 644.108,133.847 642.5,148.5C 627.821,140.321 614.821,129.988 603.5,117.5C 613.564,115.09 623.231,111.59 632.5,107C 638.189,103.485 642.189,98.6517 644.5,92.5 Z"/></g>
<g><path style="opacity:0.805" fill="#020303" d="M 327.5,41.5 C 364.658,40.3768 401.658,42.2101 438.5,47C 444.824,48.0797 450.824,50.0797 456.5,53C 460.598,56.5141 462.598,61.0141 462.5,66.5C 472.13,63.0912 481.797,63.2579 491.5,67C 515.047,72.5618 532.88,85.7285 545,106.5C 555.255,130.505 549.422,149.672 527.5,164C 506.691,173.502 485.357,175.169 463.5,169C 445.417,161.342 434.584,147.842 431,128.5C 430.333,120.5 430.333,112.5 431,104.5C 433.525,96.808 436.525,89.4747 440,82.5C 429.311,79.6202 418.477,77.2868 407.5,75.5C 409.539,95.6036 412.372,115.604 416,135.5C 417.139,139.112 418.806,142.446 421,145.5C 425.192,156.59 422.359,165.424 412.5,172C 398.996,175.834 390.496,171 387,157.5C 382.781,130.31 379.948,102.976 378.5,75.5C 364.063,75.0626 349.73,73.5626 335.5,71C 332.766,70.7896 330.266,69.9563 328,68.5C 327.667,70.8333 327.333,73.1667 327,75.5C 324.108,76.8419 322.775,79.1752 323,82.5C 317.571,86.3176 311.738,87.151 305.5,85C 298.626,81.0634 291.626,77.3967 284.5,74C 277.469,74.003 270.469,74.6697 263.5,76C 266.468,79.1473 269.802,81.814 273.5,84C 290.271,91.5516 306.604,99.885 322.5,109C 343.383,127.412 343.383,146.078 322.5,165C 311.02,171.965 298.52,175.132 285,174.5C 260.82,175.111 239.82,167.444 222,151.5C 212.433,140.141 212.1,128.474 221,116.5C 226.359,108.539 233.859,105.539 243.5,107.5C 240.064,125.829 247.398,136.662 265.5,140C 272.395,140.753 279.229,141.587 286,142.5C 292.899,142.016 299.732,141.016 306.5,139.5C 285.727,127.902 265.06,116.069 244.5,104C 230.085,85.5636 231.419,68.2303 248.5,52C 258.396,45.7033 269.229,42.87 281,43.5C 293.092,43.3183 304.592,45.8183 315.5,51C 318.295,52.7932 320.795,54.9598 323,57.5C 323.498,54.5184 323.665,51.5184 323.5,48.5C 324.833,48.5 326.167,48.5 327.5,48.5C 327.5,46.1667 327.5,43.8333 327.5,41.5 Z M 464.5,97.5 C 484.225,97.6133 500.725,104.947 514,119.5C 516.845,123.69 519.012,128.19 520.5,133C 498.828,146.729 479.661,143.896 463,124.5C 458.308,117.71 456.974,110.377 459,102.5C 460.704,100.627 462.537,98.9599 464.5,97.5 Z"/></g>
</svg>
